<?xml version="1.0" encoding="UTF-8"?>
<svg id="Layer_1" data-name="Layer 1" xmlns="http://www.w3.org/2000/svg" viewBox="0 0 890.16 1122.96">
  <defs>
    <style>
      .cls-1 {
        fill: #ffec3d;
      }
    </style>
  </defs>
  <path d="M354.31,1060.43c7.57,42.53,54.42,69.76,104.66,60.83,42.96-7.64,74.45-39.26,77.94-74.86l-183.59.29c-.14,4.55.16,9.14.98,13.75Z"/>
  <path d="M299.9,696.77c-26.51,0-50.78-7.98-70.08-23.07-21.38,5.45-75.28,13.64-120.77-25.35-37.97-32.54-53.46-76.54-47.36-134.5,2.83-26.87,18-53.14,41.61-72.08,17.43-13.98,37.72-22.45,57.7-24.42.02-17.78,3.19-44.79,19.68-64.27,12.93-15.28,31.11-23.18,54.04-23.5,27.23-.41,72.93,9.25,74.34,77.94.18,8.81-6.81,16.09-15.62,16.27-8.68.18-16.09-6.81-16.27-15.62-.68-33.13-13.31-47.17-42-46.7-13.44.19-23.28,4.16-30.07,12.14-13.89,16.33-12.92,46.9-11.38,57.3.73,4.9-.86,9.89-4.31,13.45-3.45,3.57-8.34,5.34-13.28,4.78-17.26-1.97-36.52,4.4-52.87,17.51-17.02,13.65-27.9,32.06-29.84,50.53-5.06,48.05,6.17,81.04,36.39,106.94,42.51,36.43,96.05,17.66,98.31,16.84,5.65-2.04,12.03-.76,16.41,3.35,16.39,15.39,39.58,22.51,65.31,20.07,28.28-2.7,55.33-16.57,68.92-35.35,33.62-46.47,29.42-108.02,29.37-108.63-.03-.4-.04-.8-.04-1.2V134.88c0-8.81,7.14-15.95,15.95-15.95s15.95,7.14,15.95,15.95v383.8c.49,7.89,3.41,75.44-35.38,129.06-19,26.27-54.15,44.82-91.73,48.4-4.37.42-8.69.62-12.96.62Z"/>
  <path d="M77.56,531.47c-1.13,0-2.29-.12-3.44-.38C48.48,525.45,0,495.89,0,424.36c0-47.44,27.47-79.89,55.83-95.6-10.86-11.93-22.62-29.19-26.99-51.05-5.32-26.58,1.25-53.63,19.51-80.39,21.44-31.41,72.13-46.78,117.92-35.75,39.76,9.57,65.27,36.38,69.98,73.54,1.11,8.74-5.08,16.72-13.81,17.83-8.73,1.1-16.72-5.07-17.83-13.81-4.05-31.87-30.43-42.84-45.8-46.54-32.5-7.83-70.21,2.37-84.1,22.72-13.19,19.32-18.11,38.14-14.63,55.91,5.97,30.45,34.55,49.68,34.84,49.87,5.47,3.62,8.19,10.23,6.82,16.64-1.37,6.41-6.49,11.35-12.95,12.43-23.62,3.94-56.88,29.56-56.89,74.19,0,64.04,48.58,75.47,49.07,75.57,8.6,1.89,14.04,10.4,12.15,19.01-1.64,7.45-8.24,12.53-15.56,12.53Z"/>
  <path d="M319.73,267.17c-3.59,0-7.18-.22-10.76-.68-31.36-3.96-54.24-25.8-59.71-56.99-5.56-31.74,8.27-63.92,32.89-76.51,17.22-8.81,33.29-10.6,47.76-5.32,20.23,7.38,28.46,25.74,29.33,27.81,3.42,8.12-.39,17.47-8.51,20.89-8.06,3.4-17.33-.33-20.81-8.33-.21-.44-3.86-7.94-11.16-10.48-5.76-2-13.19-.71-22.08,3.83-12.07,6.18-19.1,24.89-15.99,42.6,1.79,10.22,8.37,27.83,32.29,30.85,18.56,2.34,38.25-5.24,55.44-21.36,27.04-25.37,42.25-66.91,39.69-108.42-2.72-43.96-34.13-61.36-47.51-66.81-25.03-10.18-54.08-7.71-69.08,5.89-21.3,19.31-15.59,44.24-15.53,44.49,1.64,6.81-1.35,13.89-7.37,17.46-6.02,3.57-13.67,2.8-18.86-1.91-1.25-1.1-32.59-28.27-69.79-8.24-18.24,9.82-35.34,41.76-31.15,76.24,1.06,8.74-5.17,16.69-13.91,17.76-8.73,1.07-16.69-5.17-17.76-13.91-5.36-44.14,15.14-90.65,47.69-108.17,31.91-17.19,60.64-11.85,80.19-3.44,2.69-13.71,9.48-29.8,25.06-43.92,24.38-22.09,65.58-26.83,102.53-11.8,40.08,16.31,64.62,50.71,67.32,94.39,3.18,51.51-15.4,101.47-49.7,133.65-21.16,19.85-45.84,30.42-70.5,30.42Z"/>
  <path d="M413.92,609.71c-1.39,0-2.79-.18-4.19-.56-8.5-2.31-13.51-11.07-11.21-19.56h0c3.93-14.58,11.46-57-.79-77.85-3.25-5.53-7.58-8.8-13.62-10.32-15.65-3.91-27.42-1.87-34.98,6.08-9.59,10.09-10.76,27.14-8.72,33.86,2.52,8.27-2.01,17.03-10.2,19.77-8.19,2.73-17.08-1.54-20.04-9.65-1.35-3.57-14.39-35.47-46.25-30.37-21.68,3.47-26.63,22.04-27.63,27.64-2.08,11.67,1.58,22.68,8.9,26.8,7.68,4.32,10.41,14.04,6.09,21.72-4.31,7.68-14.03,10.42-21.72,6.09-19.26-10.82-29.18-35.02-24.69-60.21,5.09-28.51,25.78-49.02,54-53.54,23.2-3.71,41.49,3.64,54.96,14.53,2.92-6.73,6.94-13.12,12.16-18.61,11.04-11.61,31.42-23.65,65.83-15.04,14.31,3.58,25.87,12.28,33.42,25.16,21.15,36.09,5.86,95.64,4.04,102.31-1.93,7.1-8.36,11.77-15.38,11.77Z"/>
  <path d="M424.34,462.48h-.07c-8.81-.04-15.92-7.21-15.88-16.02.19-43.66.38-84.89-10.91-96.23-1.64-1.65-4.38-3.54-11.02-3.54-20.37,0-21.95,16.08-21.95,21.01,0,8.81-7.14,15.95-15.95,15.95h0c-8.81,0-15.95-7.14-15.95-15.95,0-21.26,14.35-52.9,53.85-52.9,13.77,0,25.09,4.35,33.63,12.94,20.64,20.73,20.46,61.9,20.21,118.87-.04,8.79-7.17,15.88-15.95,15.88Z"/>
  <path d="M590.27,696.77c-4.27,0-8.59-.21-12.96-.62-37.57-3.59-72.73-22.13-91.73-48.4-38.79-53.62-35.87-121.17-35.38-129.06V134.88c0-8.81,7.14-15.95,15.95-15.95s15.95,7.14,15.95,15.95v384.33c0,.4-.02.8-.05,1.2-.04.59-4.03,62.45,29.37,108.63,13.58,18.77,40.63,32.65,68.92,35.35,25.72,2.45,48.92-4.67,65.31-20.07,4.4-4.14,10.77-5.45,16.46-3.33,2.2.8,55.74,19.58,98.25-16.86,30.23-25.91,41.45-58.89,36.39-106.94-1.94-18.46-12.82-36.88-29.84-50.53-16.35-13.11-35.64-19.5-52.86-17.51-4.95.55-9.86-1.2-13.31-4.79-3.45-3.58-5.03-8.57-4.28-13.48,1.54-10.36,2.5-40.93-11.39-57.27-6.79-7.99-16.63-11.96-30.07-12.14-.4,0-.79,0-1.18,0-27.93,0-40.16,14.03-40.83,46.71-.18,8.81-7.38,15.8-16.27,15.62-8.81-.18-15.8-7.47-15.62-16.27,1.41-68.69,46.98-78.36,74.34-77.94,22.93.32,41.11,8.22,54.04,23.5,16.49,19.49,19.67,46.49,19.68,64.27,19.99,1.97,40.27,10.44,57.7,24.42,23.62,18.94,38.78,45.21,41.61,72.08,6.1,57.96-9.39,101.96-47.36,134.5-45.5,38.99-99.39,30.79-120.77,25.35-19.3,15.09-43.58,23.07-70.08,23.07Z"/>
  <path d="M812.6,531.47c-7.33,0-13.93-5.08-15.56-12.53-1.88-8.57,3.5-17.04,12.05-18.98,2.31-.55,49.18-12.62,49.17-75.6,0-44.64-33.26-70.26-56.88-74.19-6.49-1.08-11.65-6.03-12.99-12.47-1.35-6.44,1.4-13.04,6.91-16.63.24-.16,28.82-19.39,34.78-49.84,3.49-17.78-1.43-36.59-14.62-55.91-13.89-20.35-51.63-30.55-84.11-22.72-15.37,3.7-41.76,14.67-45.8,46.54-1.11,8.74-9.1,14.93-17.83,13.81-8.74-1.11-14.92-9.09-13.81-17.83,4.72-37.16,30.22-63.96,69.98-73.54,45.79-11.03,96.49,4.34,117.92,35.75,18.26,26.76,24.83,53.81,19.51,80.39-4.37,21.86-16.13,39.12-26.99,51.05,28.37,15.7,55.83,48.15,55.83,95.6,0,71.53-48.48,101.09-74.12,106.73-1.15.25-2.31.38-3.44.38Z"/>
  <path d="M570.43,267.17c-24.67,0-49.34-10.57-70.5-30.42-34.3-32.18-52.88-82.14-49.7-133.65,2.7-43.68,27.24-78.08,67.32-94.39,36.95-15.03,78.15-10.29,102.53,11.8,15.58,14.12,22.37,30.21,25.06,43.92,19.55-8.41,48.28-13.75,80.19,3.44,32.56,17.53,53.06,64.03,47.7,108.17-1.06,8.75-9,14.97-17.76,13.91-8.75-1.06-14.97-9.01-13.91-17.76,4.19-34.48-12.91-66.42-31.15-76.24-37.67-20.28-69.47,7.95-69.79,8.24-5.18,4.7-12.84,5.48-18.86,1.91-6.02-3.57-9.01-10.65-7.37-17.46.2-.89,5.35-25.57-15.53-44.49-14.99-13.59-44.04-16.07-69.08-5.89-13.38,5.44-44.79,22.85-47.51,66.81-2.57,41.51,12.64,83.05,39.69,108.42,17.18,16.12,36.89,23.7,55.44,21.36,23.91-3.02,30.5-20.63,32.29-30.85,3.1-17.71-3.92-36.42-15.99-42.6-8.89-4.54-16.32-5.84-22.08-3.83-7.49,2.61-11.14,10.42-11.17,10.5-3.42,8.12-12.73,11.83-20.85,8.41-8.12-3.42-11.88-12.87-8.47-20.99.87-2.07,9.1-20.43,29.33-27.81,14.47-5.28,30.54-3.49,47.76,5.32,24.62,12.59,38.46,44.77,32.89,76.51-5.47,31.19-28.35,53.03-59.71,56.99-3.57.45-7.17.68-10.76.68Z"/>
  <path d="M476.24,609.71c-7.02,0-13.45-4.67-15.39-11.77-1.81-6.67-17.11-66.22,4.05-102.31,7.55-12.88,19.11-21.58,33.42-25.16,34.4-8.61,54.8,3.43,65.84,15.05,5.23,5.49,9.24,11.88,12.16,18.61,13.47-10.9,31.75-18.25,54.96-14.53,28.22,4.52,48.91,25.03,54,53.54,4.5,25.2-5.42,49.39-24.69,60.21-7.68,4.32-17.41,1.58-21.72-6.09-4.31-7.68-1.59-17.4,6.09-21.72,7.32-4.11,10.99-15.13,8.91-26.8-1-5.61-5.95-24.17-27.63-27.64-31.8-5.06-44.9,26.81-46.28,30.46-3.05,8.05-11.95,12.27-20.08,9.5-8.14-2.78-12.63-11.47-10.12-19.7,2.04-6.71.88-23.76-8.72-33.85-7.55-7.95-19.32-10-34.98-6.08-6.05,1.51-10.39,4.8-13.63,10.34-12.24,20.87-4.47,64.25-.78,77.81,2.31,8.5-2.71,17.26-11.21,19.58-1.4.38-2.81.56-4.19.56Z"/>
  <path d="M465.83,462.48c-8.78,0-15.91-7.09-15.95-15.88-.25-56.98-.44-98.14,20.2-118.87,8.55-8.58,19.86-12.94,33.63-12.94,39.51,0,53.85,31.64,53.85,52.9,0,8.81-7.14,15.95-15.95,15.95s-15.87-7.06-15.95-15.8c-.15-6.38-2.59-21.15-21.95-21.15-6.65,0-9.38,1.89-11.03,3.55-11.29,11.34-11.1,52.57-10.91,96.23.04,8.81-7.07,15.98-15.88,16.02h-.07Z"/>
  <path d="M320.05,804.33c-6.29,0-12.24-3.74-14.77-9.91-.31-.76-22.72-53.62-75.34-76.4-8.08-3.5-11.8-12.89-8.3-20.98,3.5-8.08,12.9-11.78,20.97-8.3,64.98,28.14,91.12,90.97,92.2,93.63,3.32,8.16-.61,17.47-8.77,20.78-1.97.8-4,1.18-6,1.18Z"/>
  <g>
    <path class="cls-1" d="M801.57,349.02c-6.01-1-10.79-5.59-12.04-11.56-1.25-5.97,1.29-12.09,6.4-15.41.25-.16,29.22-19.63,35.29-50.57,3.56-18.1-1.43-37.22-14.8-56.82-14.14-20.72-52.43-31.13-85.34-23.2-15.66,3.77-42.56,14.96-46.69,47.53-1.02,8.1-8.43,13.82-16.53,12.8-8.1-1.03-13.83-8.43-12.8-16.53,4.65-36.65,29.84-63.09,69.09-72.54,6.26-1.51,12.61-2.47,18.97-3.01-.64-29.9-16.05-55.99-32.37-64.78-37.94-20.43-69.85,7.26-71.19,8.45-4.83,4.29-11.91,4.97-17.45,1.65-5.54-3.32-8.3-9.83-6.79-16.11.21-.94,5.53-26.23-15.88-45.64-15.32-13.88-44.89-16.45-70.3-6.1-28.71,11.68-46.29,36.4-48.23,67.82-2.62,42.48,12.34,83.35,40.05,109.34,17.44,16.36,37.46,24.04,56.38,21.67,24.66-3.12,31.44-21.27,33.29-31.81,3.19-18.19-4.1-37.44-16.61-43.84-9.31-4.76-17.13-6.04-23.23-3.81-7.75,2.82-11.5,10.78-11.54,10.86-3.17,7.52-11.83,11.05-19.36,7.89-7.52-3.17-11.06-11.83-7.89-19.36.85-2.02,8.89-19.95,28.65-27.16,14.16-5.17,29.91-3.39,46.83,5.26,24.18,12.37,37.75,44.02,32.27,75.27-5.38,30.67-27.87,52.14-58.7,56.04-3.53.44-7.07.67-10.61.67-24.37,0-48.77-10.46-69.7-30.1-7.36-6.91-13.95-14.69-19.8-23.09v108.35c6.56-3.45,14.17-5.21,22.78-5.21,38.65,0,52.68,30.94,52.68,51.74,0,8.16-6.62,14.78-14.78,14.78s-14.71-6.55-14.78-14.66c-.14-6.72-2.69-22.3-23.12-22.3-7.08,0-10.05,2.08-11.85,3.89-7.55,7.58-10.11,27.73-10.93,52.92v77.4c5.23-3.72,11.15-6.49,17.68-8.12,33.86-8.47,53.88,3.33,64.71,14.72,5.49,5.78,9.63,12.57,12.55,19.7,13.36-11.26,31.74-19.04,55.24-15.27,27.71,4.43,48.03,24.58,53.03,52.59,4.41,24.71-5.28,48.41-24.11,58.99-7.12,4-16.13,1.47-20.12-5.65-4-7.12-1.47-16.13,5.65-20.13,7.75-4.36,11.65-15.87,9.48-28.02-1.03-5.8-6.15-25-28.6-28.59-33.8-5.39-46.98,29.64-47.53,31.13-2.74,7.52-10.97,11.49-18.58,8.95-7.59-2.54-11.78-10.66-9.45-18.32,2.41-7.91.59-24.93-8.98-35-7.87-8.27-20.02-10.43-36.11-6.41-6.39,1.59-10.95,5.05-14.37,10.88-12.26,20.91-4.84,63.74-1.07,78.05,4.42,13.62,10.83,27.66,20.13,40.5,13.77,19.04,41.15,33.1,69.75,35.83,26.07,2.49,49.58-4.75,66.22-20.38,4.09-3.84,9.99-5.04,15.26-3.09,2.23.81,56.38,19.82,99.41-17.07,30.14-25.83,41.83-60.13,36.8-107.95-1.98-18.77-13.01-37.48-30.27-51.32-16.59-13.3-36.21-19.78-53.73-17.76-4.58.51-9.14-1.11-12.34-4.44-3.2-3.32-4.66-7.94-3.96-12.5,1.57-10.51,2.54-41.52-11.64-58.19-7.03-8.26-17.15-12.37-30.95-12.56-29.69-.4-42.49,13.9-43.19,47.85-.17,8.16-6.97,14.72-15.08,14.47-8.16-.17-14.65-6.92-14.47-15.08,1.39-67.68,46.52-77.24,73.15-76.8,22.58.31,40.47,8.08,53.17,23.08,16.6,19.62,19.52,47.02,19.41,64.58,20.1,1.75,40.57,10.19,58.14,24.27,17.82,14.29,30.75,32.78,37.15,52.53,14.84-8.49,36.15-28.11,36.15-70.85,0-45.32-33.84-71.35-57.86-75.35Z"/>
    <path class="cls-1" d="M350.28,175.29c-7.47,3.15-16.07-.32-19.29-7.73-.2-.43-4.03-8.38-11.82-11.1-6.08-2.12-13.82-.81-23.02,3.89-12.5,6.4-19.8,25.65-16.61,43.84,1.85,10.54,8.63,28.69,33.29,31.81,18.91,2.39,38.94-5.31,56.39-21.67,27.7-25.99,42.67-66.87,40.05-109.34-1.95-31.42-19.53-56.14-48.24-67.82-25.43-10.34-54.99-7.77-70.3,6.1-21.41,19.41-16.09,44.69-15.85,45.76,1.4,6.28-1.42,12.82-6.99,16.06-5.57,3.23-12.57,2.56-17.34-1.77-1.28-1.14-33.18-28.84-71.13-8.4-16.32,8.78-31.73,34.87-32.37,64.78,6.36.54,12.71,1.5,18.97,3.01,39.26,9.46,64.45,35.9,69.1,72.54,1.03,8.1-4.7,15.5-12.8,16.53-8.1,1.04-15.5-4.71-16.53-12.8-4.13-32.57-31.03-43.75-46.69-47.53-32.92-7.92-71.2,2.48-85.34,23.2-13.38,19.6-18.36,38.72-14.8,56.82,6.07,30.94,35.04,50.41,35.33,50.6,5.07,3.35,7.59,9.48,6.33,15.42-1.26,5.94-6.01,10.52-12.01,11.53-24.03,4-57.86,30.03-57.86,75.35,0,42.74,21.3,62.36,36.15,70.85,6.39-19.75,19.33-38.25,37.15-52.53,17.56-14.08,38.04-22.52,58.14-24.27-.11-17.56,2.8-44.96,19.4-64.58,12.7-15.01,30.59-22.78,53.17-23.08,26.62-.44,71.76,9.11,73.15,76.8.17,8.16-6.31,14.91-14.47,15.08-8.26.12-14.91-6.31-15.08-14.47-.7-33.95-13.76-48.25-43.19-47.85-13.8.19-23.93,4.3-30.95,12.56-14.18,16.68-13.21,47.69-11.64,58.23.68,4.54-.8,9.16-4,12.47-3.19,3.31-7.74,4.94-12.31,4.43-17.56-2.02-37.14,4.46-53.73,17.76-17.26,13.84-28.3,32.55-30.27,51.32-5.03,47.82,6.66,82.12,36.8,107.95,43.4,37.2,98.86,17.28,99.42,17.07,5.26-1.95,11.17-.75,15.26,3.09,16.64,15.63,40.14,22.85,66.22,20.38,28.6-2.73,55.98-16.79,69.75-35.83,9.29-12.84,15.7-26.88,20.13-40.5,4.01-15.25,11.21-57.15-1.08-78.07-3.42-5.81-7.98-9.27-14.35-10.86-16.09-4.03-28.24-1.87-36.11,6.41-9.58,10.08-11.4,27.09-8.99,35,2.33,7.66-1.86,15.78-9.45,18.32-7.59,2.53-15.83-1.43-18.57-8.95-.54-1.43-14.17-36.47-47.53-31.13-22.44,3.59-27.57,22.79-28.6,28.59-2.17,12.14,1.73,23.66,9.48,28.02,7.12,4,9.65,13.01,5.65,20.13-4,7.11-13.01,9.65-20.13,5.65-18.83-10.58-28.52-34.28-24.11-58.99,4.99-28,25.32-48.15,53.03-52.59,23.49-3.76,41.87,4.02,55.24,15.27,2.92-7.13,7.05-13.92,12.55-19.7,10.83-11.39,30.85-23.18,64.7-14.72,6.53,1.63,12.45,4.4,17.68,8.12v-77.39c-.82-25.2-3.39-45.35-10.93-52.93-1.8-1.81-4.78-3.89-11.85-3.89-22.01,0-23.12,18.47-23.12,22.18,0,8.16-6.62,14.78-14.78,14.78h0c-8.16,0-14.78-6.62-14.78-14.78,0-20.8,14.03-51.74,52.69-51.74,8.61,0,16.22,1.76,22.78,5.21v-108.35c-5.85,8.4-12.43,16.18-19.8,23.09-20.94,19.64-45.34,30.1-69.71,30.1-3.54,0-7.08-.22-10.61-.67-30.83-3.89-53.33-25.37-58.7-56.04-5.48-31.25,8.09-62.9,32.27-75.27,16.92-8.65,32.67-10.42,46.83-5.26,19.77,7.21,27.8,25.14,28.65,27.16,3.17,7.52-.36,16.19-7.89,19.36Z"/>
  </g>
  <rect x="247.48" y="815.09" width="377.73" height="66.12" rx="30" ry="30"/>
  <rect x="247.48" y="891.97" width="377.73" height="66.12" rx="30" ry="30"/>
  <rect x="251.48" y="968.86" width="377.73" height="66.12" rx="30" ry="30"/>
  <path d="M569.99,804.47c6.29,0,12.24-3.74,14.77-9.91.31-.76,22.72-53.62,75.34-76.4,8.08-3.5,11.8-12.89,8.3-20.98-3.5-8.08-12.9-11.78-20.97-8.3-64.98,28.14-91.12,90.97-92.2,93.63-3.32,8.16.61,17.47,8.77,20.78,1.97.8,4,1.18,6,1.18Z"/>
</svg>